<svg xmlns="http://www.w3.org/2000/svg" viewBox="0 0 64 64">
  <rect width="64" height="64" rx="10" fill="#ffffff"/>

  <g
    fill="none"
    stroke="#111111"
    stroke-width="3.6"
    stroke-linecap="round"
    stroke-linejoin="round"
  >
    <path d="
      M 5 36
      C 12 33, 18 28, 26 28
      C 34 28, 39 26, 44 21
      L 49 15
      L 51 21
      C 56 22, 59 25, 61 29
      L 56 32
      L 51 31
      L 44 37
      C 48 37, 53 39, 56 44
      C 50 42, 45 42, 40 44
      C 35 46, 31 50, 25 53
      C 27 47, 31 42, 36 38
      C 28 39, 21 41, 14 45
      C 17 40, 20 36, 25 33
      C 18 35, 12 36, 5 36
    "/>

    <path d="M 39 30 C 42 31, 44 32, 46 34"/>
  </g>

  <circle cx="53.5" cy="26.5" r="1.25" fill="#111111"/>
</svg>
